<?xml version="1.0" encoding="UTF-8" standalone="no"?>
<!-- Uploaded to: SVG Repo, www.svgrepo.com, Generator: SVG Repo Mixer Tools -->

<svg
   width="780"
   height="780"
   viewBox="0 -141.54 1441.246 1441.246"
   version="1.1"
   id="svg7"
   xmlns="http://www.w3.org/2000/svg"
   xmlns:svg="http://www.w3.org/2000/svg">
  <defs
     id="defs7" />
  <rect
     style="fill:#ffffff;fill-opacity:1;stroke:none;stroke-width:1.92166"
     id="rect7"
     width="1441.246"
     height="1441.246"
     x="0"
     y="-141.53999"
     rx="18.477512"
     ry="18.477512" />
  <g
     transform="matrix(0.569,0,0,0.569,180.97349,-101.21252)"
     id="g6">
    <linearGradient
       id="a"
       gradientUnits="userSpaceOnUse"
       x1="-2901.9519"
       y1="923.573"
       x2="-2061.249"
       y2="1420.3311"
       gradientTransform="matrix(0.1234,0,0,-0.1234,1158.33,1550.273)">
      <stop
         offset="0"
         stop-color="#909ca9"
         id="stop1" />
      <stop
         offset="1"
         stop-color="#ededee"
         id="stop2" />
    </linearGradient>
    <path
       fill="url(#a)"
       d="m 1410.773,814.195 -286.9,93.683 -249.599,110.161 -69.829,18.435 c -17.784,16.916 -36.431,34.049 -56.599,51.397 -22.119,19.082 -42.72,36.433 -58.553,49.008 -17.564,13.88 -43.587,39.902 -56.814,56.38 -19.735,24.721 -35.348,50.96 -42.071,71.13 -11.928,36.433 -6.07,73.297 16.916,107.346 29.492,43.369 88.261,87.606 156.785,117.749 34.916,15.4 93.683,35.132 137.92,46.19 73.512,18.651 215.771,38.819 294.054,41.857 15.828,0.65 37.082,0.65 37.947,0 1.737,-1.088 13.881,-24.289 27.979,-53.129 48.142,-98.238 82.838,-190.402 101.703,-269.119 11.276,-47.706 20.166,-111.246 26.019,-186.492 1.521,-21.036 2.169,-91.514 0.868,-115.37 -1.953,-39.033 -5.423,-70.692 -10.84,-101.703 -0.868,-4.555 -1.088,-8.676 -0.652,-8.892 0.865,-0.65 3.467,-1.517 38.815,-11.712 l -7.153,-16.912 v -0.005 0 z m -65.49,38.386 c 2.602,0 9.539,66.573 11.273,108.646 0.436,8.89 0.216,14.745 -0.216,14.745 -1.733,0 -36.649,-20.599 -61.583,-36.212 -21.687,-13.663 -62.888,-40.988 -69.393,-46.192 -2.173,-1.517 -1.957,-1.733 15.828,-7.807 30.14,-10.194 101.706,-33.18 104.091,-33.18 z m -146.161,48.143 c 1.953,0 6.937,2.816 18.865,10.191 44.671,27.974 105.393,61.805 131.415,73.083 8.022,3.469 8.887,2.166 -9.542,14.746 -39.468,26.889 -88.697,53.344 -148.983,80.018 -10.624,4.771 -19.514,8.456 -19.73,8.456 -0.432,0 0.865,-5.418 2.598,-11.925 14.53,-54.001 22.772,-108.647 23.208,-152.452 0.216,-21.687 0.216,-21.687 2.169,-22.334 -0.436,0.217 -0.22,0.217 0,0.217 z m -30.142,11.492 c 1.297,1.299 0.432,49.877 -1.304,63.104 -3.903,31.662 -9.975,61.153 -19.947,94.335 -2.386,8.018 -4.558,14.745 -4.987,15.177 -0.872,1.083 -30.581,-27.975 -40.339,-39.251 -16.916,-19.518 -30.141,-39.035 -39.9,-58.117 -4.988,-9.759 -12.793,-28.84 -12.144,-29.492 3.469,-2.385 117.753,-46.622 118.621,-45.756 z m -141.826,55.731 c 0.216,0 0.432,0 0.652,0.216 0.432,0.434 1.953,3.905 3.254,7.807 6.937,18.867 22.548,46.624 35.997,64.407 14.746,19.518 34.048,40.334 50.091,53.996 5.207,4.337 9.975,8.456 10.624,9.108 1.304,1.302 1.737,1.083 -33.612,14.53 -40.981,15.613 -85.656,31.226 -136.835,47.706 a 6825.474,6825.474 0 0 0 -36.643,11.928 c -1.955,0.652 -1.303,-0.434 4.335,-9.323 25.371,-39.686 63.97,-117.536 85.657,-172.618 3.687,-9.542 7.373,-19.082 8.025,-21.251 0.868,-3.038 1.95,-4.121 4.768,-5.64 1.518,-0.43 3.038,-0.866 3.687,-0.866 z m -43.367,17.999 c 0.649,0.436 -10.411,23.637 -21.254,44.889 -21.036,40.985 -44.022,81.323 -74.815,130.331 -5.204,8.456 -10.19,16.265 -10.842,17.132 -1.083,1.519 -1.519,1.083 -4.988,-5.638 -7.373,-14.53 -13.447,-33.181 -16.699,-50.313 -3.254,-16.916 -2.602,-46.406 1.086,-64.621 2.816,-13.444 2.602,-13.227 9.107,-16.481 27.757,-14.095 117.537,-56.166 118.405,-55.299 z m 374.073,15.182 v 9.107 c 0,48.359 -5.204,114.716 -12.797,163.077 -1.301,8.456 -2.389,15.393 -2.602,15.613 0,0 -6.288,-1.733 -13.661,-3.905 -32.527,-10.193 -67.875,-25.156 -99.754,-42.718 -21.038,-11.494 -51.612,-30.363 -50.743,-31.231 0.213,-0.215 9.323,-4.986 19.947,-10.625 42.509,-22.118 83.274,-45.972 118.622,-69.609 13.229,-8.892 33.176,-23.202 37.518,-27.107 z m -537.802,64.185 c 0.867,0 0.65,1.735 -0.651,9.542 -0.868,5.64 -1.951,16.049 -2.382,23.202 -1.739,31.662 3.469,55.084 19.082,87.177 4.337,8.892 7.809,16.265 7.589,16.48 -1.519,1.303 -145.074,43.375 -190.183,55.734 -13.444,3.685 -25.152,6.939 -26.024,7.153 -1.515,0.436 -1.733,0.22 -1.083,-3.47 4.987,-31.875 29.276,-73.512 63.104,-108.644 22.554,-23.419 40.554,-37.08 71.347,-54.648 22.119,-12.575 56.165,-31.439 58.767,-32.309 0.002,-0.217 0.218,-0.217 0.434,-0.217 z m 338.295,60.503 c 0.216,-0.216 5.42,2.605 11.708,6.29 46.408,26.891 111.03,51.83 166.108,64.623 l 4.991,1.086 -6.941,3.899 c -28.84,16.049 -123.606,55.515 -220.538,91.732 -14.098,5.202 -27.975,10.409 -30.581,11.492 -2.602,1.083 -4.988,1.735 -4.988,1.519 0,-0.22 3.906,-7.809 8.89,-17.132 27.107,-50.744 54.433,-112.547 68.311,-155.485 1.739,-4.12 2.82,-7.805 3.04,-8.024 z m -34.48,11.278 c 0.22,0.221 -1.517,4.771 -3.687,9.975 -18.865,45.756 -43.59,95.636 -75.249,151.583 -8.022,14.314 -14.746,25.808 -14.966,25.808 -0.213,0 -6.721,-3.906 -14.527,-8.676 -45.976,-28.192 -86.743,-62.888 -113.414,-96.501 l -3.905,-4.771 19.732,-5.422 c 70.696,-19.298 130.762,-40.116 190.4,-65.704 8.459,-3.471 15.4,-6.292 15.616,-6.292 z m 214.253,74.815 c 0,0 0.217,0.217 0,0 0.216,4.988 -10.844,49.661 -19.953,81.969 -7.589,27.107 -14.098,48.361 -26.022,85.874 -5.204,16.485 -9.755,30.143 -9.975,30.143 -0.216,0 -1.517,-0.216 -2.818,-0.647 -64.405,-11.714 -122.089,-27.977 -176.303,-49.661 -15.182,-6.074 -36.866,-15.833 -38.167,-16.916 -0.432,-0.438 12.58,-6.506 29.06,-13.663 98.669,-43.154 201.024,-92.164 236.153,-113.196 4.119,-2.603 7.373,-3.903 8.025,-3.903 z m -494.646,16.916 c 0.434,0.432 -27.107,40.118 -65.709,94.114 -13.444,18.867 -29.057,40.985 -34.911,49.225 -5.856,8.241 -14.746,21.253 -19.734,29.06 l -9.112,14.096 -9.759,-8.24 c -11.494,-9.544 -31.442,-29.927 -40.333,-41.204 -18.651,-23.201 -31.226,-47.706 -36.214,-70.04 -2.386,-10.411 -2.386,-15.618 -0.22,-16.265 3.252,-0.867 61.153,-14.53 115.37,-27.11 30.143,-6.937 65.054,-15.177 77.632,-18.213 12.579,-3.041 22.774,-5.423 22.99,-5.423 z m 27.756,10.626 6.937,7.806 c 31.231,34.914 63.108,60.724 101.708,83.272 6.941,3.906 12.144,7.373 11.708,7.594 -1.514,1.083 -134.016,48.136 -195.385,69.389 -34.478,12.143 -62.888,21.901 -63.102,21.901 -0.216,0 -2.169,-1.299 -4.341,-2.818 l -3.901,-2.82 6.288,-9.106 c 20.383,-29.493 45.976,-61.803 101.707,-129.028 z m 173.053,123.822 c 0.213,-0.215 9.755,3.252 21.464,7.594 28.195,10.624 50.527,17.345 80.456,24.936 36.866,9.326 90.211,18.434 121.657,21.035 4.771,0.432 7.373,0.868 6.505,1.519 -1.521,0.868 -33.395,11.494 -56.816,18.867 -37.302,11.708 -151.149,45.32 -243.962,71.995 -17.132,4.987 -31.879,9.108 -32.746,9.323 -2.166,0.436 -9.325,-1.519 -9.325,-2.386 0,-0.431 5.204,-7.153 11.494,-14.527 31.225,-37.3 62.238,-78.935 88.044,-118.403 7.154,-10.846 13.229,-19.736 13.229,-19.953 z m -38.17,1.087 c 0.216,0.216 -15.179,24.936 -42.066,67.439 -11.496,17.999 -24.291,38.383 -28.846,45.54 -4.337,6.939 -10.842,17.784 -14.527,23.854 l -6.29,11.061 -3.252,-0.868 c -7.809,-2.169 -62.672,-21.471 -77.202,-27.325 -18,-7.157 -36.649,-15.829 -50.529,-23.202 -17.346,-9.326 -39.03,-23.206 -37.297,-23.637 0.433,-0.216 30.143,-8.243 65.922,-17.999 94.984,-25.809 147.678,-40.77 182.161,-51.612 6.29,-1.952 11.71,-3.471 11.926,-3.251 z m 269.985,63.318 h 0.216 c 0.868,2.171 -34.26,99.755 -47.06,130.547 -2.815,6.939 -3.896,8.677 -5.417,8.456 -3.687,-0.213 -54.646,-7.37 -85.66,-11.925 -53.994,-8.24 -144.641,-24.073 -167.409,-29.275 l -5.204,-1.083 32.307,-7.378 c 69.396,-15.613 102.791,-24.069 136.619,-34.478 42.722,-13.011 85.011,-29.276 127.729,-49.225 6.722,-3.037 12.361,-5.422 13.879,-5.639 z"
       id="path2"
       style="fill:url(#a)" />
    <linearGradient
       id="b"
       gradientUnits="userSpaceOnUse"
       x1="-2882.7"
       y1="10288.81"
       x2="-2206.249"
       y2="10288.81"
       gradientTransform="matrix(0.1234,0,0,-0.1234,1158.33,1550.273)">
      <stop
         offset="0"
         stop-color="#939fab"
         id="stop3" />
      <stop
         offset="1"
         stop-color="#dcdee1"
         id="stop4" />
    </linearGradient>
    <path
       fill="url(#b)"
       d="m 1114.983,145.414 c -4.771,-0.647 -81.757,27.11 -131.415,47.275 -67.01,27.327 -119.052,53.351 -151.148,75.899 -11.925,8.461 -26.891,23.422 -29.273,29.276 -0.867,2.169 -1.303,4.771 -1.303,7.373 l 29.06,27.541 69.175,22.119 164.594,29.493 188.228,32.312 1.953,-16.264 c -0.649,0 -1.085,-0.216 -1.73,-0.216 l -24.728,-3.905 -4.984,-8.89 c -25.59,-45.107 -53.781,-101.056 -70.261,-138.789 -12.793,-29.276 -24.938,-63.102 -31.662,-87.391 -3.687,-14.746 -4.119,-15.613 -6.501,-15.829 v -0.005 h -0.01 z m -3.474,11.063 h 0.223 c 0.213,0.214 1.081,6.29 1.95,13.442 3.683,30.364 10.411,59.635 21.035,91.297 8.022,23.855 8.022,22.555 -1.301,19.734 -22.119,-6.07 -121.221,-23.202 -193,-33.177 -11.494,-1.519 -21.253,-3.036 -21.253,-3.252 -0.867,-0.867 51.827,-28.41 75.031,-39.25 29.709,-13.665 111.246,-47.711 117.315,-48.794 z m -209.047,97.15 8.461,2.816 c 45.97,15.616 161.551,37.736 225.31,42.94 7.154,0.651 13.229,1.303 13.442,1.303 0.216,0.216 -5.852,3.469 -13.661,7.154 -30.79,15.397 -64.621,34.264 -88.042,48.794 -6.937,4.335 -13.229,7.807 -14.094,7.807 -0.868,0 -5.42,-0.868 -10.191,-1.519 l -8.674,-1.303 -21.683,-21.253 c -38.167,-37.08 -68.094,-65.704 -79.588,-76.549 z m -8.671,6.721 30.576,38.168 c 16.696,21.035 33.611,41.635 37.301,46.187 3.683,4.557 6.721,8.245 6.505,8.461 -0.868,0.65 -44.236,-7.809 -67.226,-13.011 -23.637,-5.423 -33.395,-8.025 -47.924,-12.577 l -11.928,-3.905 v -3.038 c 0.216,-14.53 18.651,-36.214 49.877,-58.331 z m 259.791,52.046 c 0.869,0 1.95,1.951 4.552,7.806 7.373,16.263 30.364,60.07 35.997,68.526 1.74,2.822 4.771,3.038 -25.802,-1.95 -73.512,-11.93 -97.152,-15.829 -97.152,-16.263 0,-0.216 2.169,-1.735 4.988,-3.254 22.771,-12.575 45.756,-28.624 66.142,-45.756 4.988,-4.121 9.542,-8.024 10.407,-8.676 0.216,-0.433 0.652,-0.649 0.868,-0.433 z"
       id="path4"
       style="fill:url(#b)" />
    <radialGradient
       id="c"
       cx="-14217.448"
       cy="7277.7051"
       r="898.12"
       gradientTransform="matrix(-0.1185,-0.0178,-0.036,0.237,-198.955,-1314.415)"
       gradientUnits="userSpaceOnUse">
      <stop
         offset="0"
         stop-color="#ee352c"
         id="stop5" />
      <stop
         offset="1"
         stop-color="#a91d22"
         id="stop6" />
    </radialGradient>
    <path
       fill="url(#c)"
       d="m 804.66,294.828 c 0,0 -4.768,7.593 -0.215,18.87 2.822,6.937 11.061,15.393 20.384,24.069 0,0 96.5,94.114 108.211,107.561 53.344,61.585 76.549,122.305 78.718,206.012 1.301,53.78 -8.894,101.054 -34.264,155.919 -45.106,98.453 -140.307,207.098 -287.117,327.67 l 21.472,-7.157 c 13.878,-10.411 32.745,-21.467 76.982,-45.756 102.137,-55.952 217.071,-107.346 358.028,-160.258 202.971,-76.335 536.715,-165.681 726.676,-194.736 l 19.737,-3.038 -3.038,-4.771 c -17.345,-26.891 -29.276,-43.587 -43.59,-61.369 -41.633,-51.612 -92.157,-93.463 -153.964,-128.161 -85.007,-47.489 -194.956,-84.571 -334.173,-112.112 -26.239,-5.207 -83.923,-15.181 -130.763,-22.337 -99.321,-15.393 -163.51,-26.021 -234.203,-38.165 -25.37,-4.339 -63.323,-10.843 -88.478,-16.263 -13.011,-2.822 -37.947,-8.676 -57.464,-15.398 -15.613,-6.075 -38.168,-12.147 -42.939,-30.58 z m 55.952,54.216 c 0.214,-0.214 3.683,1.083 8.24,2.602 8.24,2.816 18.865,6.07 31.446,9.542 a 1599.47,1599.47 0 0 0 28.624,7.589 c 13.011,3.251 23.852,6.288 24.068,6.288 1.521,1.519 23.424,71.558 30.797,98.449 2.815,10.195 4.988,18.867 4.771,18.867 -0.223,0.22 -2.605,-3.469 -5.423,-8.456 -25.373,-44.673 -65.491,-89.995 -111.899,-126.428 -6.069,-4.333 -10.624,-8.237 -10.624,-8.453 z m 106.692,29.492 c 1.085,0 5.856,0.651 11.708,1.951 36.866,8.24 103.008,20.818 145.293,27.975 7.157,1.083 12.797,2.387 12.797,2.818 0,0.436 -2.605,1.951 -5.859,3.688 -7.153,3.685 -35.997,20.815 -45.536,27.322 -24.073,16.047 -45.756,33.395 -61.371,49.008 -6.288,6.29 -11.712,11.494 -11.712,11.494 0,0 -1.297,-3.685 -2.386,-8.242 -7.802,-30.143 -24.069,-74.816 -38.815,-106.258 -2.386,-4.986 -4.339,-9.541 -4.339,-9.973 0,0.433 0,0.217 0.22,0.217 z m 187.795,35.781 c 1.301,0.432 3.47,7.806 7.806,24.069 8.025,31.446 11.712,66.576 10.411,99.321 -0.436,9.108 -0.868,17.564 -1.304,18.651 l -0.649,2.166 -11.276,-3.685 c -23.204,-7.373 -60.935,-18.435 -93.245,-27.541 -18.436,-4.988 -33.395,-9.542 -33.395,-9.975 0,-1.303 26.891,-28.192 38.383,-38.383 21.898,-19.303 81.316,-65.275 83.269,-64.623 z m 14.963,2.166 c 0.652,-0.647 89.779,14.746 130.331,22.554 30.145,5.854 73.948,14.963 76.549,16.049 1.301,0.432 -3.254,3.034 -17.784,9.539 -57.248,25.808 -99.754,49.008 -142.036,77.202 -11.06,7.373 -20.386,13.444 -20.602,13.444 -0.216,0 -0.433,-6.287 -0.433,-13.878 0,-41.201 -8.241,-82.838 -23.424,-117.968 -1.517,-3.47 -2.818,-6.722 -2.601,-6.942 z m 230.516,45.542 c 0.652,0.65 -2.169,18.217 -4.771,28.624 -7.806,32.312 -28.84,80.24 -54.643,125.343 -4.558,8.024 -8.677,14.53 -9.114,14.746 -0.429,0.216 -6.285,-3.038 -13.009,-6.941 -25.154,-14.746 -53.778,-28.624 -85.007,-41.637 -8.671,-3.685 -16.263,-6.723 -16.48,-7.153 -1.521,-1.303 68.308,-47.493 105.174,-69.612 29.276,-17.781 76.982,-44.239 77.85,-43.37 z m 16.48,2.601 c 1.953,0 41.421,10.844 62.019,16.916 50.963,15.181 109.512,36.648 147.679,53.996 l 15.828,7.159 -11.056,2.6 c -93.245,21.467 -173.049,46.192 -250.034,77.418 -6.289,2.602 -11.928,4.771 -12.357,4.771 -0.436,0 1.733,-4.987 4.552,-11.061 23.204,-49.225 38.167,-100.62 41.85,-144.427 0.221,-4.121 0.867,-7.372 1.519,-7.372 z m -392.938,90.213 c 0.649,-0.652 30.793,6.506 47.057,11.056 24.721,6.942 77.198,24.505 77.198,25.808 0,0.216 -5.853,5.204 -12.79,11.278 -28.408,23.637 -55.734,48.572 -88.481,80.234 -9.759,9.328 -17.997,16.917 -18.429,16.917 -0.436,0 -0.649,-1.304 -0.436,-3.038 4.987,-36.433 3.906,-83.272 -3.034,-130.763 -0.653,-6.074 -1.302,-11.276 -1.085,-11.492 z m 633.433,0.652 c 0.429,0.431 -13.881,22.984 -22.988,35.777 -13.009,18.649 -32.098,43.375 -75.252,97.588 -22.765,28.622 -48.358,60.936 -56.812,71.778 -8.678,10.842 -15.831,19.948 -16.051,19.948 -0.216,0 -3.031,-3.901 -6.069,-8.671 -24.289,-36.433 -53.349,-68.311 -87.829,-96.935 -6.505,-5.423 -13.658,-11.278 -16.044,-13.013 -2.386,-1.734 -4.339,-3.469 -4.339,-3.685 0,-0.649 36.862,-16.483 64.841,-27.757 49.01,-19.952 115.794,-43.805 165.892,-59.203 26.24,-8.239 54.215,-16.263 54.651,-15.827 z m 16.696,4.334 c 0.865,-0.215 6.072,2.387 12.361,6.07 52.697,30.143 104.305,68.962 145.077,108.864 11.492,11.278 39.9,40.77 39.464,40.986 0,0 -9.975,0.867 -21.683,1.733 -91.296,6.942 -208.178,26.239 -320.511,53.345 -7.589,1.733 -14.31,3.252 -14.746,3.252 -0.429,0 8.025,-8.456 18.653,-18.647 65.922,-63.538 96.067,-103.656 131.628,-175.22 4.986,-10.623 9.325,-19.731 9.757,-20.383 -0.216,0 -0.216,0 0,0 z m -482.936,49.446 c 3.038,0.647 31.229,13.88 52.48,24.503 19.517,9.755 48.794,25.372 50.311,26.671 0.216,0.216 -10.195,5.638 -22.984,11.928 -40.772,20.384 -75.684,39.682 -112.118,61.802 -10.408,6.29 -19.082,11.497 -19.298,11.497 -0.868,0 -0.652,-0.872 5.204,-11.497 19.518,-35.561 35.129,-78.065 44.023,-119.486 0.864,-3.252 1.733,-5.418 2.382,-5.418 z m -28.192,5.202 c 0.652,0.652 -6.721,27.323 -11.273,41.853 -8.894,27.541 -23.856,62.02 -38.383,88.043 -3.474,6.069 -8.677,14.961 -11.496,19.948 l -5.42,8.674 -12.144,-11.707 c -14.094,-13.663 -25.59,-22.12 -40.333,-29.712 -5.859,-3.033 -10.411,-5.638 -10.411,-6.069 0,-1.735 37.082,-35.347 65.49,-59.635 20.383,-17.566 63.321,-52.045 63.97,-51.395 z m 172.404,70.913 10.627,6.937 c 24.282,15.833 52.906,36.866 74.813,55.298 12.357,10.19 36.21,31.662 40.985,36.866 l 2.598,2.822 -17.561,4.986 c -99.321,27.538 -176.087,52.043 -265.649,85.007 -9.975,3.685 -18.433,6.721 -19.085,6.721 -1.297,0 -2.385,1.083 19.954,-19.519 57.251,-52.691 107.992,-110.812 145.726,-167.411 z m -45.324,11.276 c 0.432,0.432 -29.276,42.284 -47.06,65.922 -21.251,28.192 -58.985,75.465 -85.007,106.256 -10.84,12.797 -20.163,23.422 -20.599,23.64 -0.652,0.216 -0.868,-3.036 -0.868,-8.024 0,-26.242 -6.721,-54.216 -18.433,-78.068 -4.988,-9.975 -5.856,-12.361 -4.768,-13.444 4.119,-3.688 67.223,-39.686 107.123,-61.153 26.89,-14.312 68.956,-35.563 69.612,-35.129 z m -274.107,67.225 c 0.652,0 5.64,2.6 11.279,5.638 13.878,7.589 26.239,16.046 37.298,25.156 0.432,0.432 -5.204,4.988 -12.577,10.406 -20.602,14.746 -51.828,38.385 -70.041,52.915 -19.088,15.18 -19.734,15.613 -17.568,12.361 14.314,-21.903 21.467,-34.264 29.06,-50.093 6.721,-14.094 13.442,-30.793 18.213,-45.323 1.734,-6.289 3.904,-11.06 4.336,-11.06 z m 73.083,57.248 c 1.081,-0.214 2.386,1.735 8.238,10.411 12.361,18.429 21.903,43.154 24.292,63.104 l 0.429,4.339 -29.705,11.494 c -53.133,20.599 -102.139,40.985 -135.322,56.162 -9.322,4.339 -25.587,12.144 -36.211,17.352 -10.627,5.418 -19.301,9.539 -19.301,9.323 0,-0.216 6.721,-5.204 14.961,-11.278 64.844,-47.055 121.007,-98.669 163.076,-150.279 4.555,-5.423 8.677,-10.411 9.107,-10.627 z m -33.612,8.242 c 0.868,0.867 -23.853,28.84 -40.768,45.971 -41.853,42.723 -83.273,76.12 -134.669,108.649 -6.505,4.119 -12.359,7.804 -13.011,8.24 -1.519,0.867 0.432,-1.303 22.986,-25.808 14.314,-15.397 25.155,-28.408 37.516,-44.453 8.24,-10.624 9.759,-12.143 21.688,-20.604 31.878,-22.987 105.39,-72.864 106.258,-71.995 z"
       id="path6"
       style="fill:url(#c)" />
  </g>
  <path
     fill="#231f1f"
     d="m 264.3623,877.62379 c -2.19381,0 -4.38859,0.20916 -6.56312,0.20916 -44.31479,2.36153 -74.20305,21.86389 -91.67835,59.94907 -14.94606,34.44456 -13.3142,79.46878 0.16771,114.12448 15.67765,33.8623 41.01058,51.7338 83.29542,58.4839 8.94681,1.4651 14.94605,6.3771 32.27388,26.6091 l 21.32122,24.9792 h 38.66929 l -25.71269,-25.9209 c -14.21351,-14.2125 -25.70981,-26.5879 -25.70981,-27.6752 0,-1.0863 5.4373,-3.469 12.01873,-5.4748 21.69714,-6.5661 39.71511,-23.3281 52.31892,-49.0176 10.20083,-20.6292 11.66498,-27.0063 13.1272,-52.6727 3.82567,-76.39786 -36.45427,-124.16144 -103.53033,-123.61588 z m 33.90286,199.78521 c -18.81222,9.1117 -46.12883,10.9305 -63.95981,4.3886 -18.4363,-6.7713 -36.28655,-25.918 -44.31478,-47.5939 -8.92465,-23.703 -7.65039,-67.42984 2.55045,-87.12208 16.40828,-31.35338 38.10638,-45.77508 69.81446,-45.77508 47.03006,0 73.78472,28.80485 77.27593,82.94074 2.75961,45.19192 -12.37441,79.09472 -41.34601,93.14252 z M 966.26418,942.88099 c -16.22032,0 -28.63617,6.56504 -36.99887,19.50043 l -6.56312,10.24325 v -26.63032 h -28.07133 v 159.69515 h 28.05302 v -51.0437 c 0,-46.6753 0.58218,-52.1309 7.10482,-64.90342 8.98923,-17.5158 24.45482,-26.25056 39.40281,-22.07017 l 10.03215,2.92636 V 942.9234 h -12.95948 z m -164.91944,-1.46415 c -5.49899,0 -11.33148,0.73256 -17.13891,2.00875 -37.56371,9.82202 -58.73745,45.77409 -57.44199,82.77201 0,30.9784 6.01852,46.4652 20.96651,62.7077 30.62275,25.1238 58.3172,27.1297 95.69006,13.6497 6.37612,-2.7172 13.31516,-5.8528 13.31516,-5.8528 v -25.1237 l -13.31516,6.8976 c -30.24587,13.1676 -53.02931,13.1676 -71.27861,-2.3423 -11.63992,-11.852 -16.76299,-26.0655 -19.12356,-42.2839 h 113.18561 v -21.5323 c 0,-43.89452 -26.42019,-71.61115 -64.88225,-70.90076 z m -45.77701,70.02366 c 0,0 4.18135,-27.38122 19.69032,-38.12569 7.46436,-5.26861 16.03236,-7.81714 24.41338,-7.81714 8.40414,0 16.78515,2.71624 23.70395,8.00606 14.21543,10.93145 16.5972,37.72957 16.5972,37.72957 h -84.40389 v 0.2072 z M 78.810816,982.63848 C 48.377955,964.20124 34.874837,950.90633 36.525979,935.22964 c 4.723055,-43.3721 58.318167,-37.37286 87.998231,-20.96362 l 0.21109,-29.17884 c 0,0 -16.40925,-7.10675 -39.925244,-7.48363 -36.07739,-0.54363 -59.404462,11.28617 -70.334961,35.36604 -16.0545323,35.53376 -1.8391,62.32987 49.540028,92.22201 28.844373,16.7832 41.593737,31.3534 41.593737,47.2383 0,32.8175 -39.567643,44.2723 -80.389296,23.6827 -8.401256,-4.1804 -15.5089713,-7.6716 -15.8848883,-7.6716 -1.464147,9.3025 -0.709422,31.5626 -0.709422,31.5626 0,0 12.5421213,5.2686 31.3524113,8.9024 46.652211,9.3016 89.106695,-12.5826 93.119365,-48.1163 3.49121,-33.3593 -8.57186,-50.8558 -54.284287,-78.17532 z M 1214.7095,941.04189 c -5.4769,0 -11.2881,0.75183 -17.35,2.02706 -37.5184,9.82395 -58.6527,45.77703 -57.2107,82.77495 0,30.936 6.0002,46.2772 20.9443,62.4966 30.6238,25.1469 58.3192,27.173 95.881,13.6718 6.3539,-2.7162 13.2727,-5.8084 13.2727,-5.8084 v -25.1662 l -13.293,6.9371 c -30.3075,13.1272 -53.0929,13.1272 -71.2767,-2.3817 -11.7064,-11.8308 -16.7851,-25.8776 -19.1476,-42.2868 h 112.9986 v -21.5294 c 0,-43.68444 -26.4221,-71.42323 -64.8823,-70.69067 z m -45.777,70.02271 c 0,0 4.2228,-27.34072 19.7105,-38.29438 7.4422,-5.28693 16.0112,-7.83835 24.3932,-7.83835 8.3607,0 16.7851,2.7172 23.7058,8.0263 14.2135,10.93241 16.5972,37.91753 16.5972,37.91753 h -84.3836 z M 654.39989,982.99318 C 623.96703,964.59933 610.5044,951.262 612.1353,935.58435 c 4.72305,-43.39427 58.31912,-37.37286 87.99919,-20.96362 l 0.21012,-29.17884 c 0,0 -16.40924,-7.10771 -39.92523,-7.44315 -36.0774,-0.54267 -59.40447,11.2881 -70.35521,35.36701 -16.03236,35.5328 -1.6309,62.33083 49.57955,92.22205 28.80485,16.7649 41.55421,31.1451 41.55421,47.03 0,32.8175 -39.54739,44.4604 -80.37001,23.6818 -8.36077,-4.1804 -15.46656,-7.6301 -15.88489,-7.6301 -1.46415,9.3005 -0.70942,31.5635 -0.70942,31.5635 0,0 12.39368,5.0797 31.14325,8.9034 46.69559,9.3227 89.16935,-12.5421 93.16274,-48.0759 3.47,-33.1934 -8.56994,-50.688 -54.13874,-78.02872 v -0.039 z m 725.25021,-40.48811 c -16.2203,0 -28.7807,6.5824 -36.9969,19.5226 l -6.5651,10.19988 V 945.6406 h -28.0713 v 159.6518 h 28.0511 v -51.0418 c 0,-46.6551 0.5629,-52.1319 7.1087,-64.88222 8.9873,-17.49458 24.4529,-26.25151 39.3989,-22.05185 l 10.0322,2.9254 v -27.73589 h -12.9576 z M 431.16325,982.07268 V 880.36027 h -28.30074 v 225.28783 h 119.01906 v -26.6072 h -90.71735 v -96.96822 z m 654.49505,31.70812 -23.3271,60.7009 -22.4297,-61.0354 -22.7835,-67.63895 h -28.96971 c 18.77181,53.21823 39.18991,107.35415 59.78051,159.84075 8.9256,0.2082 17.8714,0 26.7951,0 l 31.5018,-79.0948 32.085,-80.7257 h -27.6945 c 0,0 -12.2298,32.06472 -24.9782,67.9744 z M 496.37804,818.97019 c 4.55726,0 8.36077,-1.46125 11.4963,-4.59678 3.09215,-3.09505 4.72305,-6.7318 4.72305,-11.2881 0,-4.55727 -1.6309,-8.36174 -4.72305,-11.2881 -3.13553,-2.92541 -6.75204,-4.39052 -11.2881,-4.39052 -4.59679,0 -8.40222,1.46511 -11.4963,4.55727 -3.13457,3.09504 -4.55631,6.89951 -4.55631,11.28906 0,4.59872 1.46415,8.40126 4.55631,11.2881 2.92733,2.92444 6.7318,4.38859 11.2881,4.38859 z m -10.03216,-25.918 c 2.71624,-2.71624 6.01949,-3.97219 10.24132,-3.97219 3.97219,0 7.27543,1.25595 10.03505,3.97219 2.7172,2.7172 4.18038,6.01948 4.18038,10.03312 0,4.01267 -1.46318,7.48363 -4.18038,10.19987 -2.75865,2.71527 -6.06286,4.01267 -10.03505,4.01267 -4.03387,0 -7.31591,-1.25402 -10.03215,-4.01267 -2.7172,-2.71624 -4.18039,-6.1872 -4.18039,-10.19987 0,-4.01364 1.25402,-7.31496 3.97122,-10.03312 z m 6.75012,11.49726 h 1.8391 c 1.29739,0 2.57165,1.25306 3.65795,3.63676 l 2.19671,4.93125 h 3.44783 l -2.71624,-5.47778 c -1.10751,-2.19285 -2.19381,-3.46807 -3.47,-3.82567 1.60969,-0.37592 2.88395,-0.91859 3.80447,-2.00682 0.91762,-0.93883 1.25305,-2.21502 1.25305,-3.65796 0,-1.67138 -0.52242,-2.92444 -1.62897,-3.84495 -1.25498,-1.04486 -3.2618,-1.60873 -5.85466,-1.60873 h -5.80839 v 20.42191 h 2.9254 v -8.56993 z m 0,-9.49045 h 2.55141 c 1.8391,0 3.13553,0.37592 3.84592,0.91859 0.69014,0.54363 0.8781,1.25595 0.8781,2.55045 0,2.36153 -1.46511,3.47096 -4.18039,3.47096 h -3.13456 v -6.94 z m -467.503412,7.67063 c 0,-7.10675 -0.208199,-12.39368 -0.375916,-15.50897 h 0.167717 c 0.730627,3.67627 1.629935,6.41661 2.361527,8.2345 l 27.172025,60.7009 h 4.557266 l 27.172019,-61.24357 c 0.73352,-1.67042 1.46512,-4.18038 2.36346,-7.67159 h 0.2082 c -0.54267,6.06286 -0.73063,11.32955 -0.73063,15.53018 v 53.5739 h 9.2996 V 776.70656 H 86.124806 L 61.147554,832.0974 c -0.920514,2.19381 -2.195739,5.47778 -3.825675,9.82491 h -0.377844 c -0.542669,-2.15332 -1.817894,-5.43537 -3.635789,-9.449 L 28.892944,776.51668 H 16.499261 v 79.63745 h 8.945853 v -53.38498 z m 92.576702,0.14844 h 8.02823 v 49.59979 h -8.02823 z m 4.01363,-18.18665 c 1.67331,0 3.09408,-0.56581 4.18039,-1.67139 1.10847,-1.08823 1.84102,-2.509 1.84102,-4.18038 0,-1.6309 -0.54459,-3.09505 -1.81885,-4.18039 -1.12872,-1.10847 -2.57166,-1.67427 -4.2228,-1.67427 -1.62897,0 -3.09216,0.5658 -4.18135,1.67427 -1.10462,1.08534 -1.83814,2.54949 -1.83814,4.18039 0,1.81886 0.56484,3.09215 1.83814,4.18038 1.25691,1.10558 2.55141,1.67139 4.18135,1.67139 z m 61.24549,68.87467 v -8.73862 c -4.39051,3.28205 -9.11453,4.91391 -14.0053,4.91391 -5.85081,0 -10.59796,-2.00585 -14.06796,-5.85081 -3.44783,-3.80446 -5.28693,-9.09525 -5.28693,-15.67861 0,-6.89759 1.8391,-12.37633 5.64261,-16.55672 3.65796,-4.01267 8.40414,-6.01948 14.21543,-6.01948 4.74426,0 9.29863,1.46511 13.50312,4.39244 v -9.30153 c -3.82471,-2.00682 -8.19306,-2.92733 -13.1272,-2.92733 -9.11454,0 -16.21936,2.92733 -21.52846,8.57283 -5.26862,5.6426 -7.98582,13.31419 -7.98582,22.57427 0,8.2345 2.36153,15.15426 7.27543,20.44312 5.12018,5.43344 11.66499,8.19305 19.69032,8.19305 6.20552,-0.17157 11.28425,-1.468 15.67476,-4.01652 z m 22.97044,-26.44236 c 0,-6.54288 1.46318,-11.82981 4.18038,-15.46945 2.55142,-3.28012 5.64357,-4.93126 9.30153,-4.93126 3.09408,0 5.28789,0.56388 6.89662,1.8391 v -9.49045 c -1.25305,-0.54267 -3.07191,-0.73062 -5.43344,-0.73062 -3.28204,0 -6.20648,1.10461 -8.77813,3.13553 -2.71721,2.15043 -4.89077,5.4344 -6.166,9.61479 h -0.2082 v -11.64378 h -9.09236 v 56.85498 h 9.1126 v -29.17884 z m 52.31892,30.30755 c 8.57089,0 15.46848,-2.75961 20.58866,-8.2345 5.09897,-5.43729 7.64942,-12.75128 7.64942,-21.86678 0,-9.29863 -2.33936,-16.40635 -7.10579,-21.69714 -4.72305,-5.285 -11.2881,-7.83834 -19.859,-7.83834 -8.5709,0 -15.46848,2.55141 -20.58866,7.48363 -5.47585,5.4373 -8.36077,13.10793 -8.36077,22.95309 0,8.56993 2.34128,15.67765 7.27543,20.96554 5.09897,5.47489 11.85101,8.2133 20.40071,8.2133 z m -12.95949,-46.31967 c 3.47,-3.65796 8.02823,-5.47778 13.66987,-5.47778 5.85466,0 10.24325,1.81982 13.50408,5.47778 3.28108,3.82567 4.91294,9.28225 4.91294,16.57599 0,6.93808 -1.46414,12.39465 -4.55823,16.05261 -3.09215,3.82567 -7.64942,5.85177 -13.67083,5.85177 -5.85177,0 -10.38783,-2.02803 -13.85783,-5.85177 -3.44783,-3.84592 -5.09993,-9.11453 -5.09993,-16.05261 -0.35472,-6.89758 1.46414,-12.54019 5.09993,-16.57599 z m 81.10257,41.36625 c 3.46903,-3.09216 5.31006,-6.89662 5.31006,-11.66498 0,-4.18039 -1.46511,-7.64942 -4.18135,-10.38783 -2.21694,-2.19285 -5.6426,-4.18039 -10.59699,-6.1872 -4.39148,-1.83718 -7.10772,-3.47 -8.57187,-4.74523 -1.46222,-1.46222 -2.36152,-3.27915 -2.36152,-5.85177 0,-2.36152 0.92051,-4.18038 2.71913,-5.64357 1.8391,-1.46125 4.18038,-2.17164 7.31591,-2.17164 4.91198,0 9.11261,1.29451 12.95756,4.03388 v -9.11454 c -3.6782,-1.83717 -7.67063,-2.71527 -12.22789,-2.71527 -5.85177,0 -10.78495,1.61066 -14.42364,4.72209 -3.82567,3.09601 -5.6426,7.10868 -5.6426,11.83077 0,4.18039 1.25306,7.65135 3.63482,10.19987 2.00682,2.17454 5.4373,4.39148 10.20084,6.37516 4.55823,2.00778 7.65135,3.82471 9.30153,5.28693 1.62993,1.46511 2.36152,3.28204 2.36152,5.4373 0,5.30717 -3.63578,8.04751 -10.7435,8.04751 -5.47682,0 -10.38687,-1.79862 -14.77931,-5.43441 v 9.82107 c 3.97219,2.38562 8.73862,3.47096 14.00531,3.47096 6.75204,-0.35471 12.03897,-2.00585 15.67668,-5.28789 z m 43.39331,-54.68141 c -8.57187,0 -15.46849,2.55141 -20.58963,7.48363 -5.43441,5.4373 -8.36077,13.10793 -8.36077,22.95309 0,8.56993 2.36345,15.67765 7.27446,20.96554 5.12115,5.47489 11.85102,8.2133 20.42192,8.2133 8.77813,0 15.46848,-2.75769 20.58866,-8.23643 5.12114,-5.43344 7.67063,-12.74936 7.67063,-21.86389 0,-9.30153 -2.38274,-16.40732 -7.10772,-21.69618 -4.93029,-5.28885 -11.4963,-7.8393 -19.85707,-7.8393 z m 17.68254,29.89212 c 0,6.93807 -1.46319,12.39464 -4.55631,16.0526 -3.09408,3.82568 -7.65135,5.85177 -13.6718,5.85177 -5.85466,0 -10.38879,-2.02802 -13.85975,-5.85177 -3.44783,-3.84591 -5.09897,-9.11453 -5.09897,-16.0526 0,-7.31592 1.81982,-12.95852 5.47778,-16.76492 3.44686,-3.63675 8.00606,-5.47682 13.66987,-5.47682 5.6426,0 10.17963,1.83814 13.45974,5.47682 2.92733,4.01267 4.55823,9.46924 4.55823,16.76492 z m 24.62446,28.44725 h 9.09236 v -49.22387 h 13.3142 v -7.65135 h -13.31516 v -8.7791 c 0,-7.98293 3.09216,-11.99656 9.48949,-11.99656 2.15332,0 4.3481,0.54267 5.979,1.46318 v -8.2133 c -1.6309,-0.73159 -3.82568,-0.89834 -6.56601,-0.89834 -4.91102,0 -8.92368,1.46415 -12.20669,4.5563 -3.82567,3.63675 -5.85177,8.36077 -5.85177,14.75907 v 9.32273 h -9.61768 v 7.64942 h 9.61768 v 49.03881 z m 37.35069,-15.50994 c 0,11.12135 4.91391,16.78516 14.94606,16.78516 3.63772,0 6.37516,-0.58411 8.56994,-1.88054 v -7.81714 c -1.67139,1.25498 -3.65796,1.84102 -5.85177,1.84102 -3.09216,0 -5.26669,-0.73448 -6.54288,-2.38562 -1.29643,-1.62801 -2.02706,-4.38955 -2.02706,-8.19402 v -32.084 h 14.42074 v -7.65135 h -14.42074 v -16.76203 c -3.13553,1.08631 -6.20744,2.00682 -9.11453,2.92444 v 13.83663 h -9.82395 v 7.65135 h 9.82395 v 33.71586 z m 978.23155,104.80363 c -3.0932,-2.92444 -6.7511,-4.38859 -11.2862,-4.38859 -4.5978,0 -8.4042,1.46415 -11.4973,4.59872 -3.0931,3.07288 -4.5582,6.89662 -4.5582,11.2881 0,4.55727 1.4651,8.36173 4.5351,11.28617 3.095,2.92637 6.8976,4.39148 11.4972,4.39148 4.5351,0 8.3608,-1.46511 11.4973,-4.55823 3.0729,-3.13553 4.7028,-6.75108 4.7028,-11.28617 -0.1677,-4.59872 -1.8188,-8.40415 -4.912,-11.32955 z m -1.4623,21.53135 c -2.7181,2.71624 -6.0204,3.97026 -10.034,3.97026 -3.9703,0 -7.2726,-1.25402 -10.0322,-3.97026 -2.7162,-2.75962 -4.1814,-6.20841 -4.1814,-10.24325 0,-3.97218 1.2541,-7.27254 4.0137,-10.03215 2.7162,-2.71528 6.0002,-3.97219 10.1999,-3.97219 3.9721,0 7.2764,1.25691 10.034,3.97219 2.7163,2.75961 4.1795,6.05997 4.1795,10.03215 0,4.22376 -1.2541,7.48363 -4.1795,10.24325 z m -8.1949,-9.30249 c 1.6299,-0.37592 2.9273,-1.10751 3.8256,-2.00586 0.9205,-0.94171 1.256,-2.2179 1.256,-3.67723 0,-1.6309 -0.5234,-2.92733 -1.63,-3.82568 -1.254,-1.04582 -3.281,-1.61065 -5.8508,-1.61065 h -5.8113 v 20.39974 h 2.9274 v -8.56994 h 1.8169 c 1.256,0 2.51,1.25306 3.6368,3.63676 l 2.1726,4.91197 h 3.4719 l -2.7162,-5.47778 c -0.9418,-2.38273 -2.029,-3.47096 -3.1346,-3.82664 z m -2.0069,-1.83814 h -3.1345 v -6.89662 h 2.5716 c 1.8189,0 3.0931,0.33254 3.8257,0.89834 0.7306,0.54267 0.8983,1.25402 0.8983,2.55045 0,2.36153 -1.4631,3.44976 -4.1794,3.44976 z M 907.94698,796.89907 h 2.55045 v -20.42191 h 6.74915 v -2.55045 H 901.1959 v 2.55045 h 6.75301 v 20.42191 z m 15.46752,-15.34222 c 0,-1.98754 0,-3.61747 -0.14651,-4.5351 0.16772,1.08534 0.54364,1.81886 0.71135,2.36153 l 7.83931,17.51579 h 1.25402 l 7.85762,-17.68447 c 0.21109,-0.54267 0.37881,-1.25402 0.73256,-2.19285 -0.16772,1.81886 -0.16772,3.27819 -0.16772,4.38859 v 15.46849 h 2.71817 v -22.95212 h -3.28301 l -7.10482,15.8444 c -0.16772,0.5658 -0.73449,1.67138 -1.08823,2.92733 h -0.20917 c -0.14651,-0.73352 -0.52146,-1.46415 -1.04485,-2.71624 l -7.10676,-16.05356 h -3.6782 v 22.9926 h 2.56973 v -15.34222 z"
     id="path7"
     style="stroke-width:0.963889" />
</svg>
