<?xml version="1.0" encoding="UTF-8" standalone="no"?>
<svg
   viewBox="0 0 63 63"
   version="1.1"
   id="svg1"
   width="63"
   height="63"
   xmlns="http://www.w3.org/2000/svg"
   xmlns:svg="http://www.w3.org/2000/svg">
  <defs
     id="defs1" />
  <rect
     style="fill:#ffffff;fill-opacity:1;stroke:none"
     id="rect1"
     width="63"
     height="63"
     x="0"
     y="0"
     ry="12"
     rx="12" />
  <path
     fill="#ea1b22"
     d="m 27.219384,32.726858 h 4.141457 l -2.190256,-3.523693 -4.019693,6.370976 h -1.829438 l 4.889434,-7.652725 a 1.1550157,1.1550157 0 0 1 0.959697,-0.496001 c 0.380201,0 0.734558,0.180409 0.940314,0.483079 l 4.90832,7.665647 h -1.829437 l -0.862783,-1.42389 h -4.193642 z m 19.002594,1.423393 v -6.647305 h -1.552115 v 7.298368 c 0,0.199792 0.07753,0.393123 0.225635,0.541227 0.148105,0.148104 0.347897,0.2316 0.567071,0.2316 h 7.079193 l 0.914967,-1.42389 z M 20.538781,32.958954 c 1.507385,0 2.731483,-1.21714 2.731483,-2.724525 0,-1.507385 -1.223601,-2.731483 -2.731483,-2.731483 h -6.791433 v 8.071692 h 1.552115 v -6.648299 h 5.136441 c 0.721636,0 1.301131,0.586454 1.301131,1.307593 0,0.72114 -0.579992,1.307593 -1.301131,1.307593 l -4.376537,-0.0065 4.633979,4.039077 h 2.255363 l -3.118146,-2.615645 h 0.708218 z M 4.1946127,35.574141 c -2.2280274,0 -4.0365912,-1.803594 -4.0365912,-4.032616 0,-2.229021 1.8080668,-4.039076 4.0365912,-4.039076 h 4.6911332 c 2.2290211,0 4.0360951,1.810552 4.0360951,4.039076 0,2.228525 -1.807074,4.032616 -4.0360951,4.032616 z M 8.781377,34.150251 A 2.6092223,2.6092223 0 0 0 11.394575,31.541525 2.6151863,2.6151863 0 0 0 8.781377,28.925842 H 4.2979876 a 2.6151863,2.6151863 0 0 0 -2.6122043,2.615683 2.6092223,2.6092223 0 0 0 2.6122043,2.608726 z m 29.478746,1.42389 c -2.228525,0 -4.038579,-1.803594 -4.038579,-4.032616 0,-2.229021 1.810054,-4.039076 4.038579,-4.039076 h 5.572305 l -0.909005,1.423393 h -4.559926 a 2.6176712,2.6176712 0 0 0 -2.61618,2.615683 c 0,1.442776 1.172908,2.608726 2.61618,2.608726 h 5.597651 l -0.91447,1.42389 z m 18.983706,-1.42389 a 2.6092223,2.6092223 0 0 1 -2.512308,-1.900508 h 6.634881 l 0.91447,-1.423393 h -7.549351 a 2.6171742,2.6171742 0 0 1 2.512308,-1.900508 h 4.553963 l 0.921428,-1.423393 h -5.578766 c -2.228524,0 -4.038579,1.810552 -4.038579,4.039076 0,2.228525 1.810055,4.032616 4.038579,4.032616 h 4.786557 l 0.914967,-1.42389 h -5.598149"
     id="path1"
     style="stroke-width:0.496995" />
</svg>
